<svg version="1.1" id="Layer_1" xmlns="http://www.w3.org/2000/svg" xmlns:xlink="http://www.w3.org/1999/xlink" x="0px" y="0px"
	 viewBox="0 0 480.824 480.824" style="enable-background:new 0 0 480.824 480.824;" xml:space="preserve">
<g>
	<path d="M425.953,249.695l16.236-99.049h18.223v-30h-67.343L267.321,0l-20.77,21.648l103.185,98.999H115.685l101.717-99.077
		L196.47,0.079L72.69,120.646H5.412v30h18.115l28.93,186.134c3.815,24.544,26.26,43.77,51.099,43.77h116.309
		c13.259,57.374,64.772,100.273,126.117,100.273c71.368,0,129.43-58.062,129.43-129.43
		C475.412,310.186,456.053,273.415,425.953,249.695z M82.102,332.173L53.888,150.646h357.901l-13.502,82.37
		c-16.003-7.099-33.7-11.052-52.305-11.052c-71.086,0-128.962,57.606-129.418,128.586H103.556
		C93.649,350.551,83.624,341.963,82.102,332.173z M345.982,450.824c-54.826,0-99.429-44.604-99.429-99.43s44.604-99.43,99.429-99.43
		s99.43,44.604,99.43,99.43S400.808,450.824,345.982,450.824z"/>
	<polygon points="360.982,289.779 330.982,289.779 330.982,336.395 284.367,336.395 284.367,366.395 330.982,366.395 
		330.982,413.01 360.982,413.01 360.982,366.395 407.599,366.395 407.599,336.395 360.982,336.395 	"/>
</g>
</svg>